<svg xmlns="http://www.w3.org/2000/svg" viewBox="0 0 200 45">
  <defs/>
  <g fill="none" fill-rule="nonzero">
    <path fill="#000" d="M22.328 0c12.331 0 22.328 9.997 22.328 22.328 0 5.45-1.953 10.445-5.197 14.321l-.096.114a5.584 5.584 0 003.646 5.038 11.17 11.17 0 01-2.757.343c-1.938 0-3.761-.494-5.35-1.363a22.221 22.221 0 01-12.574 3.875C9.997 44.656 0 34.66 0 22.328S9.997 0 22.328 0z"/>
    <path fill="#F9603A" d="M6.198 12.377l.064-.031.095-.046.06-.03.086-.039.06-.027.047-.021.046-.02.052-.024.072-.03.1-.043.06-.025.06-.024.049-.02.052-.02.079-.03.072-.027.045-.017.067-.024.048-.018.05-.017a10.8 10.8 0 01.049-.017l.076-.026.094-.032.136-.043.05-.016.054-.016L8 11.67l.079-.023.08-.022.086-.024.097-.026.08-.02.102-.025a11.1 11.1 0 01.133-.032l.06-.013.052-.012.052-.01c.02-.005.039-.01.059-.013l.051-.01.08-.017.09-.017.061-.011a11.068 11.068 0 01.367-.06l.049-.007.114-.016.065-.008.05-.006.052-.006.06-.007.058-.006.058-.006.052-.005.083-.008.096-.008.151-.01.057-.004.117-.007.053-.002.057-.003.057-.002.065-.002.055-.002h.055l.057-.002.084-.001h.085c.101 0 .202.001.302.004l.064.002.087.003.093.004.091.005.048.003.074.004.026.002a11.25 11.25 0 01.396.035l.087.01.08.008.103.013.039.005.039.006.093.013.054.008.09.014.034.005.094.016.083.014a11.116 11.116 0 01.173.033l.046.009.046.009.083.017.04.009.042.009.09.02.045.01.044.01.082.02.046.012.085.022.039.01.084.022.045.012.083.023.039.012a11.07 11.07 0 01.256.077l.078.024.045.015.044.014.083.028.078.027.044.016.044.015.078.028.042.016.042.016.078.03.08.03.084.034.077.03.08.034.041.017.081.035.076.034.035.015.087.04.037.017.037.017a11.11 11.11 0 01.167.08l.064.031.044.022.043.021.07.036.038.02.038.02.079.041.075.041.036.02.036.02.079.044.074.042.071.041.077.046.07.042.038.023.073.045.036.022.075.048.069.044.075.05.067.044.074.05a11.182 11.182 0 01.141.098l.066.047.073.052.034.025.034.026.067.049.069.052.07.054.062.049.072.057.064.052.065.053.033.027.032.027.069.058.063.054.062.054.033.03.033.028.062.056.034.031.062.057.028.027.066.061.06.057.064.063.057.055.062.063.06.06.06.062.058.062.029.03.058.062.03.032.058.064.054.06.06.068.053.06.056.066.056.066.054.064.057.07.049.06.029.037.054.068.025.032.052.068.051.068.053.07.048.065.054.076.023.03.049.07.026.039.046.066.05.074.022.033.023.034.048.074.046.071.023.036.022.036.046.073.023.038.044.072.021.035.047.079.04.068.044.078.042.076.039.07.021.04.022.04.04.074.04.077.019.038.02.038.039.079.036.074.038.079.04.084.033.07.04.088.03.071.018.04.035.08.017.04.033.081.032.079.017.041.016.041.03.079.032.08.03.085.028.074.031.089.029.082.027.08.027.084.027.085.013.043.013.042.024.078.023.082.013.044.013.045a11.057 11.057 0 01.046.171l.017.063a11.07 11.07 0 01.048.197l.019.08.023.102.014.068a11.08 11.08 0 01.036.177l.01.048.009.049.013.074.009.048.008.049.014.082.012.077.008.05.013.088.012.088.012.093.005.044a11.168 11.168 0 01.022.194l.004.037.004.037.008.09.004.047.004.046a11.222 11.222 0 01.023.36l.004.083c.005.123.008.248.009.372v2.436h4.185a4.184 4.184 0 014.184 4.113v.07a4.184 4.184 0 01-4.115 4.181h-.069v.057h-7.131a5.578 5.578 0 00-2.412 10.859l-.031.03a22.214 22.214 0 01-7.167-3.209 11.115 11.115 0 01-5.332 1.354c-.951 0-1.875-.12-2.756-.343a5.58 5.58 0 003.644-5.002 22.3 22.3 0 01-.541-.66l-.016-.02-.089-.113-.034-.045a12.97 12.97 0 01-.074-.095l-.085-.112a22.39 22.39 0 01-.153-.206l-.052-.071a10.995 10.995 0 01-.05-.07l-.055-.076-.054-.075-.093-.132-.082-.118a8.675 8.675 0 01-.034-.05l-.069-.1a10.556 10.556 0 01-.038-.056l-.038-.057-.057-.086-.051-.077-.047-.071-.055-.084-.062-.097-.04-.063-.06-.096-.04-.063-.058-.094-.04-.066-.058-.096a22.285 22.285 0 01-.123-.206l-.07-.12-.043-.074-.05-.086-.041-.075-.054-.094-.042-.077-.05-.09a22.473 22.473 0 01-.116-.215l-.066-.125-.04-.076-.046-.09-.04-.078-.046-.092-.04-.078-.044-.09a22.2 22.2 0 01-.347-.739l-.06-.136-.037-.084-.037-.084-.036-.086-.042-.1a22.152 22.152 0 01-.157-.383l-.06-.154-.038-.097A22.226 22.226 0 01.003 22.74L0 22.369l.001-.183c.017-1.006.166-1.979.432-2.902l.004-.013c.01-.04.022-.08.034-.118l-.038.13a11.06 11.06 0 01.083-.274l.003-.01.003-.009c.04-.128.083-.254.128-.38l.007-.02.041-.112.013-.033.041-.11.013-.03.044-.112.006-.014c.049-.12.1-.24.153-.36l.014-.031a7.45 7.45 0 01.045-.098l.01-.022.01-.022.046-.095.021-.044.045-.093.022-.042c.052-.104.106-.207.161-.31l.025-.046.046-.082.03-.053.048-.084.03-.05.046-.08.036-.06c.056-.091.113-.183.171-.273l.033-.05.047-.073.041-.061.048-.07.036-.053a8.18 8.18 0 01.053-.076l.035-.048c.062-.088.126-.174.19-.26l.043-.056a7.96 7.96 0 01.05-.064l.046-.06.053-.065.044-.055.053-.065.05-.06.05-.058.048-.057.067-.078.051-.057.058-.065.052-.057.027-.03.05-.054.063-.066.045-.048.064-.066.047-.048.053-.053.068-.067.056-.055.064-.062.058-.054.036-.034a8.27 8.27 0 01.044-.04l.036-.034.036-.033.048-.043.04-.036.076-.066.057-.05.082-.07.062-.05.037-.032a9.11 9.11 0 01.05-.04l.07-.056.058-.047.065-.051.058-.045.042-.032.061-.046.08-.06.084-.06.064-.046.07-.05.065-.045.066-.044.067-.046.043-.028a9.73 9.73 0 01.05-.032l.042-.028.092-.059.065-.04.079-.05.068-.041.077-.046.068-.04.048-.027a10.176 10.176 0 01.14-.08l.05-.028.049-.026.092-.05.07-.037.072-.036.122-.062z"/>
    <path fill="#FFF" d="M27.947 14.744c.783.79 2.053.79 2.836 0a.63.63 0 01.895 0 .643.643 0 010 .903 3.25 3.25 0 01-4.626 0 .643.643 0 010-.903.63.63 0 01.895 0zm.262-3.42c.37.375.37.981 0 1.356a.944.944 0 01-1.323.02l-.02-.02a1.678 1.678 0 00-2.364-.024l-.024.024a.944.944 0 01-1.343 0 .964.964 0 010-1.355 3.565 3.565 0 015.074 0zm7.386 0c.37.375.37.981 0 1.356a.944.944 0 01-1.323.02l-.02-.02a1.678 1.678 0 00-2.364-.024l-.024.024a.944.944 0 01-1.343 0 .964.964 0 010-1.355 3.565 3.565 0 015.074 0zM18.226 21.992a1.478 1.478 0 01-.001 2.09 4.117 4.117 0 01-5.822.004 1.478 1.478 0 012.067-2.115l.024.024a1.161 1.161 0 001.62.02l.022-.021a1.478 1.478 0 012.09-.002zm1.272-2.71a.633.633 0 01-.879.913l-.017-.017a1.267 1.267 0 00-1.768-.021l-.023.022a.633.633 0 11-.895-.895c.99-.99 2.594-.99 3.582-.002zm-4.875-.053a.633.633 0 01-.879.913l-.017-.017a1.161 1.161 0 00-1.62-.02l-.022.021a.633.633 0 11-.895-.895 2.428 2.428 0 013.433-.002z"/>
    <g>
      <path fill="#000" d="M67.4 9.312c.148 0 .345.062.59.185.247.124.37.247.37.37l-.002.057-.003.07c-.004.087-.012.213-.023.376l-.06.853a100.201 100.201 0 00-.207 5.915v3.312l.003.625c.003.476.008 1.038.015 1.685l.028 2.505c.013 1.31.02 2.42.02 3.33 0 2.326-.615 4.531-1.846 6.616-1.23 2.085-2.95 3.774-5.157 5.07-2.209 1.294-4.62 1.941-7.235 1.941-1.472 0-2.603-.29-3.394-.872-.791-.582-1.187-1.4-1.187-2.452 0-.769.247-1.427.742-1.975.494-.55 1.159-.823 1.994-.823a3.36 3.36 0 011.977.625c.573.403 1.023.841 1.35 1.315l.034.051c.33.494.692.95 1.088 1.366.395.417.758.626 1.088.626.417 0 .758-.214 1.021-.642.26-.42.476-1.239.65-2.454l.01-.064c.172-1.231.26-2.908.263-5.03V19.594l.01-.008.001-2.945c0-.163-.022-.27-.065-.324l-.009-.01c-.044-.043-.146-.087-.306-.13l-.063-.017-1.254-.222c-.197-.025-.296-.26-.296-.704 0-.395.099-.63.296-.703 2.853-1.11 5.94-2.814 9.262-5.109.123-.074.222-.11.295-.11zm127.517 4.55c.415 0 .634.089.655.266.132 1.016.22 2.308.263 3.877h.052c.32 0 .903-.006 1.752-.017.829-.01 1.434-.015 1.814-.016h.088c.175 0 .295.072.36.215.066.144.099.426.099.845 0 .42-.033.69-.098.812-.066.122-.186.183-.361.183h-.202c-1.6-.001-2.758-.012-3.471-.034v6.562c0 1.458.18 2.464.54 3.016.362.552.925.829 1.69.829.153 0 .317-.034.492-.1s.284-.1.328-.1c.196 0 .393.106.59.316.197.21.262.392.197.546-.437 1.127-1.214 2.105-2.329 2.933-1.115.829-2.394 1.243-3.837 1.243-1.705 0-3.006-.514-3.903-1.54a4.925 4.925 0 01-.846-1.387l-.045.044-.06.06c-1.842 1.811-3.49 2.717-4.946 2.717-1.976 0-3.359-1.383-4.15-4.149-.526 1.307-1.267 2.325-2.222 3.055a5.206 5.206 0 01-3.244 1.094c-1.252 0-2.278-.44-3.08-1.323-.801-.882-1.202-1.965-1.202-3.25 0-1.002.176-1.813.527-2.434.352-.62.955-1.16 1.812-1.617 1.39-.733 3.737-1.465 7.04-2.198l.106-.023v-1.124c-.008-1.139-.183-2.038-.527-2.699-.351-.675-.834-1.012-1.449-1.012-.298 0-.472.164-.523.492l-.004.03-.23 1.568-.01.068c-.16 1.12-.552 1.964-1.176 2.53-.637.577-1.427.865-2.371.865-.549 0-1.01-.163-1.383-.49-.374-.326-.56-.773-.56-1.34 0-1.132.927-2.297 2.783-3.495 1.855-1.197 3.968-1.796 6.34-1.796 4.347 0 6.542 1.611 6.586 4.834v6.18c.002.49.024.892.066 1.203.044.327.104.578.181.752.077.174.176.283.297.326.12.044.247.044.378 0 .132-.043.297-.13.494-.26a.517.517 0 01.172-.096 9.215 9.215 0 01-.098-1.385v-9.08c0-.155-.022-.254-.066-.298-.044-.044-.153-.089-.328-.133l-1.18-.166c-.176-.022-.263-.243-.263-.662 0-.464.087-.707.262-.73 1.684-.397 3.072-.916 4.166-1.557 1.093-.64 2.186-1.536 3.28-2.684.174-.177.426-.266.754-.266zM80.013 17.884c2.91 0 5.258.762 7.044 2.286 1.786 1.525 2.678 3.594 2.678 6.207 0 2.723-.953 4.862-2.86 6.42-1.907 1.557-4.415 2.335-7.523 2.335-2.91 0-5.258-.762-7.044-2.286-1.786-1.525-2.678-3.594-2.678-6.207 0-2.723.953-4.862 2.86-6.42 1.907-1.557 4.415-2.335 7.523-2.335zm62.238 0c1.964 0 3.535.435 4.713 1.306 1.179.871 1.768 1.884 1.768 3.038 0 .654-.23 1.193-.687 1.617-.459.425-1.048.638-1.768.638-1.375 0-2.542-.904-3.502-2.712-.59-1.11-1.042-1.835-1.359-2.172-.316-.338-.66-.507-1.03-.507-.786 0-1.18.577-1.18 1.732 0 1.437.328 2.989.983 4.655.654 1.666 1.473 2.989 2.455 3.97.85.848 1.745 1.273 2.684 1.273.807 0 1.625-.348 2.455-1.045.152-.11.37-.066.654.13.284.196.393.382.328.556-.546 1.306-1.56 2.428-3.044 3.365-1.484.936-3.197 1.404-5.14 1.404-2.465 0-4.484-.784-6.055-2.352-1.571-1.568-2.357-3.615-2.357-6.141 0-2.592.95-4.7 2.848-6.322 1.899-1.622 4.31-2.433 7.234-2.433zm-42.578-.295c.13 0 .303.055.52.165.216.11.324.22.324.33 0 .089-.021.43-.065 1.024a83 83 0 00-.13 2.476c-.04.994-.062 2.047-.064 3.158v8.092c.008.24.13.383.364.431l.025.005 1.104.231.014.002c.015.004.03.008.043.015a.193.193 0 01.042-.01l1.114-.23.026-.005c.245-.05.368-.201.368-.455v-8.669c-.003-.137-.025-.226-.066-.268-.043-.043-.153-.087-.328-.13l-1.114-.198-.016-.003c-.164-.032-.247-.239-.247-.621 0-.35.088-.559.263-.625 2.23-.876 4.852-2.387 7.869-4.533a.435.435 0 01.262-.099c.131 0 .306.055.524.164.219.11.328.22.328.329v.007c-.001.086-.023.511-.065 1.274a41.566 41.566 0 00-.066 2.3c.481-1.073 1.24-1.988 2.279-2.743 1.038-.756 2.235-1.134 3.59-1.134 1.727 0 3.087.493 4.082 1.479.995.985 1.492 2.365 1.492 4.14v9.356c.009.247.14.392.393.434l1.115.23.014.002c.166.033.248.274.248.72 0 .46-.087.69-.262.69h-.008c-.133-.001-.802-.04-2.008-.114a53.402 53.402 0 00-3.263-.115c-.94 0-1.994.038-3.164.115-1.17.076-1.808.115-1.918.115-.175 0-.262-.23-.262-.69 0-.416.087-.657.262-.723l.886-.23.032-.008c.156-.042.254-.089.295-.14.044-.055.066-.159.066-.312v-6.549c-.007-1.492-.22-2.54-.64-3.143-.426-.613-1.185-.92-2.278-.92-.328 0-.568.033-.721.098V32.848c.003.137.024.231.065.282.044.055.153.104.328.148l.885.23.016.007c.165.074.247.313.247.716 0 .46-.088.69-.263.69h-.009c-.131-.002-.762-.04-1.892-.115a48.063 48.063 0 00-3.148-.115c-.94 0-2.033.038-3.279.115a92.23 92.23 0 01-2.032.115.177.177 0 01-.05-.007.171.171 0 01-.036.006h-.022c-.13-.001-.793-.04-1.988-.115a52.108 52.108 0 00-3.23-.115c-.93 0-2.013.038-3.246.115a90.001 90.001 0 01-2.013.116c-.173 0-.26-.231-.26-.694 0-.449.082-.69.246-.724l.014-.002 1.104-.231.025-.005c.235-.048.356-.191.364-.431v-8.737c-.002-.138-.024-.227-.065-.268-.04-.042-.138-.083-.293-.124l-.031-.008-1.104-.199-.015-.002c-.163-.032-.245-.24-.245-.625 0-.352.087-.56.26-.627 2.51-.99 5.227-2.509 8.148-4.556a.55.55 0 01.26-.099zm57.018-7.96c.13 0 .306.055.524.163.219.109.328.217.328.326 0 .087-.022.423-.065 1.009a79.91 79.91 0 00-.132 2.441 79.365 79.365 0 00-.065 3.32v4.525l.041-.072c.544-.923 1.295-1.702 2.254-2.337.984-.651 2.098-.977 3.344-.977 1.727 0 3.088.489 4.082 1.465.995.977 1.492 2.344 1.492 4.101v9.27c.009.245.14.388.393.43l1.115.228.015.002c.165.033.248.271.248.714 0 .456-.088.684-.263.684h-.008a98.83 98.83 0 01-2.008-.114 53.9 53.9 0 00-3.262-.114c-.94 0-1.995.038-3.164.114a78.62 78.62 0 01-1.918.114c-.175 0-.263-.228-.263-.684 0-.412.088-.65.263-.716l.885-.228.032-.008c.156-.041.255-.087.296-.138.043-.055.065-.158.065-.31V26.35c-.007-1.48-.22-2.517-.64-3.115-.425-.607-1.185-.911-2.278-.911-.328 0-.568.033-.721.098V32.867c.003.136.025.23.065.28.044.054.153.103.328.146l.886.228.016.007c.164.073.246.31.246.71 0 .455-.088.683-.262.683h-.01c-.131-.002-.762-.04-1.892-.114a48.511 48.511 0 00-3.148-.114 54.7 54.7 0 00-3.278.114 93.086 93.086 0 01-2.033.114c-.175 0-.262-.228-.262-.684 0-.456.087-.694.262-.716l1.115-.228.025-.005c.245-.048.368-.199.368-.45V16.043c-.003-.134-.025-.222-.066-.263-.043-.043-.153-.086-.327-.13l-1.115-.195-.016-.002c-.164-.032-.246-.238-.246-.616 0-.348.087-.554.262-.619 2.535-.976 5.279-2.474 8.23-4.492a.563.563 0 01.262-.097zm-78.622 9.517c-.812 0-1.218.72-1.218 2.16 0 1.747.395 4.044 1.185 6.893.79 2.848 1.537 4.622 2.24 5.32.329.328.669.491 1.02.491.812 0 1.218-.72 1.218-2.16 0-1.747-.395-4.044-1.185-6.893-.79-2.848-1.537-4.622-2.24-5.32-.328-.328-.669-.491-1.02-.491zm99.383 6.871c-.645 0-.967.454-.967 1.362 0 .887.25 1.676.75 2.368s1.04 1.038 1.618 1.038a.83.83 0 00.576-.205l.024-.022V28.205c-.012-.605-.246-1.13-.7-1.572-.423-.41-.856-.616-1.301-.616zM96.996 8.571c1.09 0 1.99.364 2.698 1.092.708.728 1.063 1.632 1.063 2.713 0 1.08-.36 1.985-1.08 2.713-.697.727-1.591 1.091-2.681 1.091s-1.99-.364-2.699-1.091c-.708-.728-1.063-1.632-1.063-2.713 0-1.08.355-1.985 1.063-2.713.709-.728 1.608-1.092 2.699-1.092z"/>
      <path fill="#F9603A" d="M128.466 34.92c.934 0 1.71-.289 2.328-.868.635-.579.952-1.295.952-2.147 0-.853-.313-1.568-.939-2.148-.626-.579-1.407-.868-2.341-.868-.935 0-1.716.29-2.342.868a2.808 2.808 0 00-.939 2.148c0 .852.313 1.568.94 2.147.625.58 1.406.869 2.34.869z"/>
    </g>
  </g>
</svg>
